<?xml version="1.0" standalone="no"?>
<!DOCTYPE svg PUBLIC "-//W3C//DTD SVG 20010904//EN"
 "http://www.w3.org/TR/2001/REC-SVG-20010904/DTD/svg10.dtd">
<svg version="1.0" xmlns="http://www.w3.org/2000/svg"
 width="280.000000pt" height="280.000000pt" viewBox="0 0 280.000000 280.000000"
 preserveAspectRatio="xMidYMid meet">

<g transform="translate(0.000000,280.000000) scale(0.100000,-0.100000)"
fill="#000000" stroke="none">
<path d="M0 1400 l0 -1400 1400 0 1400 0 0 1400 0 1400 -1400 0 -1400 0 0
-1400z m1260 765 c106 -68 182 -68 281 0 94 65 191 43 275 -62 76 -94 123
-218 124 -320 0 -24 4 -43 9 -43 5 0 32 -20 59 -45 80 -72 96 -124 89 -300 -4
-86 -14 -174 -26 -228 -26 -112 -89 -257 -151 -344 -88 -126 -248 -259 -374
-311 -88 -36 -206 -36 -292 0 -129 54 -294 192 -379 317 -109 162 -163 339
-172 566 -7 176 9 228 89 300 27 25 54 45 59 45 5 0 9 17 9 39 0 141 86 315
194 391 33 23 52 29 96 30 47 0 64 -5 110 -35z"/>
<path d="M1133 2122 c-33 -5 -116 -100 -152 -174 -28 -56 -34 -82 -38 -155
l-5 -88 -61 -44 c-89 -66 -101 -100 -94 -261 9 -212 54 -363 152 -516 55 -85
164 -190 263 -253 56 -36 156 -71 202 -71 133 0 361 160 468 329 96 150 139
295 149 506 7 166 -4 199 -94 265 l-60 45 -6 90 c-5 77 -11 100 -42 161 -46
89 -119 165 -163 166 -17 1 -43 -8 -58 -18 -83 -59 -167 -81 -245 -65 -52 11
-103 34 -129 57 -21 18 -61 31 -87 26z m116 -316 c22 -14 61 -48 87 -76 26
-27 55 -50 64 -50 9 0 38 23 64 50 110 117 224 142 297 64 20 -21 24 -36 24
-87 -1 -75 -27 -135 -91 -206 -188 -209 -532 -158 -655 97 -31 63 -33 160 -4
192 49 56 140 62 214 16z m502 -453 c28 -58 33 -82 37 -166 7 -149 -23 -255
-110 -382 -76 -112 -201 -183 -302 -171 -27 3 -51 8 -53 10 -3 3 13 26 35 53
64 77 103 171 123 291 11 75 -2 187 -31 265 l-18 47 26 6 c96 19 198 62 228
95 9 10 21 19 25 19 4 0 22 -30 40 -67z"/>
<path d="M1141 1714 c-12 -15 -21 -33 -21 -40 0 -29 25 -65 48 -71 52 -13 84
75 42 117 -27 27 -44 25 -69 -6z"/>
<path d="M1575 1695 c-24 -23 -34 -55 -16 -55 4 0 22 5 39 11 22 8 36 7 52 -1
16 -9 25 -8 36 1 19 15 18 25 -6 49 -28 28 -75 26 -105 -5z"/>
<path d="M1367 1614 c-23 -24 5 -184 33 -184 20 0 41 70 38 128 -3 55 -4 57
-33 60 -17 2 -34 0 -38 -4z"/>
</g>
</svg>
